<svg width="30" height="30" viewBox="0 0 30 30" fill="none" xmlns="http://www.w3.org/2000/svg">
<path d="M25.875 21.75C24.5068 21.75 24.3486 20.1875 22.2373 20.1875C20.1167 20.1875 19.9509 21.75 18.5874 21.75C17.2351 21.75 17.0516 20.1875 14.9375 20.1875C12.8456 20.1875 12.6319 21.75 11.2998 21.75C9.92539 21.75 9.77627 20.1875 7.6499 20.1875C5.52358 20.1875 5.37192 21.75 4 21.75V17.8438C4 16.5498 5.0498 15.5 6.34375 15.5H7.125V8.46875H10.25V15.5H13.375V8.46875H16.5V15.5H19.625V8.46875H22.75V15.5H23.5312C24.8252 15.5 25.875 16.5498 25.875 17.8438V21.75ZM25.875 28H4V23.3125C6.11699 23.3125 6.28355 21.75 7.6499 21.75C9.0147 21.75 9.17593 23.3125 11.2998 23.3125C13.3917 23.3125 13.6053 21.75 14.9375 21.75C16.3119 21.75 16.461 23.3125 18.5874 23.3125C20.7044 23.3125 20.8709 21.75 22.2373 21.75C23.5795 21.75 23.7633 23.3125 25.875 23.3125V28ZM8.6875 7.6875C7.8208 7.6875 7.125 6.9917 7.125 6.125C7.125 4.61133 8.6875 5.00195 8.6875 3C9.27344 3 10.25 4.44043 10.25 5.73438C10.25 7.02832 9.5542 7.6875 8.6875 7.6875ZM14.9375 7.6875C14.0708 7.6875 13.375 6.9917 13.375 6.125C13.375 4.61133 14.9375 5.00195 14.9375 3C15.5234 3 16.5 4.44043 16.5 5.73438C16.5 7.02832 15.8042 7.6875 14.9375 7.6875ZM21.1875 7.6875C20.3208 7.6875 19.625 6.9917 19.625 6.125C19.625 4.61133 21.1875 5.00195 21.1875 3C21.7734 3 22.75 4.44043 22.75 5.73438C22.75 7.02832 22.0542 7.6875 21.1875 7.6875Z" fill="#CCCCCC"/>
</svg>
