<svg width="30" height="20" viewBox="0 0 30 20" fill="none" xmlns="http://www.w3.org/2000/svg">
<path d="M0 0H30V20H0V0Z" fill="#012169"/>
<path d="M0 0V2.23438L26.6455 20H30V17.7656L3.35449 0H0ZM30 0V2.23438L3.35449 20H0V17.7656L26.6455 0H30Z" fill="white"/>
<path d="M12.501 0V20H17.499V0H12.501ZM0 6.66797V13.332H30V6.66797H0Z" fill="white"/>
<path d="M0 8V12H30V8H0ZM13.5 0V20H16.5V0H13.5ZM0 20L9.99902 13.332H12.2373L2.23535 20H0ZM0 0L9.99902 6.66797H7.76367L0 1.49219V0ZM17.7656 6.66797L27.7646 0H30L20.001 6.66797H17.7656ZM30 20L20.001 13.332H22.2363L30 18.5078V20Z" fill="#C8102E"/>
</svg>
