<svg width="26" height="26" viewBox="0 0 26 26" fill="none" xmlns="http://www.w3.org/2000/svg">
<path d="M21.9498 3.7C19.5498 1.3 16.4498 0 13.1498 0C6.2498 0.1 0.649805 5.7 0.649805 12.5C0.649805 14.7 1.2498 16.8 2.3498 18.7L0.549805 25.2L7.1498 23.5C8.9498 24.5 11.0498 25 13.1498 25C20.0498 25 25.7498 19.4 25.7498 12.5C25.7498 9.2 24.3498 6.1 21.9498 3.7ZM13.1498 22.9C11.2498 22.9 9.44981 22.4 7.8498 21.5L7.4498 21.3L3.5498 22.3L4.5498 18.5L4.3498 18C3.3498 16.3 2.7498 14.4 2.7498 12.5C2.7498 6.8 7.4498 2.2 13.1498 2.2C15.9498 2.2 18.5498 3.3 20.4498 5.2C22.3498 7.1 23.6498 9.8 23.6498 12.5C23.6498 18.3 18.8498 22.9 13.1498 22.9ZM18.8498 15.1C18.5498 14.9 17.0498 14.2 16.7498 14.1C16.4498 14 16.2498 13.9 16.0498 14.3C15.8498 14.6 15.2498 15.3 15.0498 15.5C14.8498 15.7 14.6498 15.7 14.3498 15.6C12.5498 14.7 11.3498 14 10.1498 11.9C9.8498 11.3 10.4498 11.4 11.0498 10.2C11.1498 10 11.1498 9.8 11.0498 9.7C10.9498 9.5 10.3498 8 10.0498 7.4C9.7498 6.8 9.5498 6.9 9.3498 6.9C9.14981 6.9 8.9498 6.9 8.7498 6.9C8.5498 6.9 8.2498 7 7.9498 7.3C7.5498 7.5 6.7498 8.2 6.7498 9.8C6.7498 11.4 7.8498 12.8 8.0498 13C8.2498 13.2 10.2498 16.4 13.3498 17.7C15.3498 18.6 16.1498 18.6 17.0498 18.5C17.6498 18.4 18.8498 17.7 19.1498 17C19.4498 16.3 19.4498 15.6 19.3498 15.5C19.3498 15.4 19.1498 15.3 18.8498 15.1Z" fill="#9D3E08"/>
</svg>
