<svg width="26" height="26" viewBox="0 0 26 26" fill="none" xmlns="http://www.w3.org/2000/svg">
<path d="M22.1998 3.7C19.7998 1.3 16.6998 0 13.3998 0C6.4998 0.1 0.899805 5.7 0.899805 12.5C0.899805 14.7 1.4998 16.8 2.5998 18.7L0.799805 25.2L7.3998 23.5C9.1998 24.5 11.2998 25 13.3998 25C20.2998 25 25.9998 19.4 25.9998 12.5C25.9998 9.2 24.5998 6.1 22.1998 3.7ZM13.3998 22.9C11.4998 22.9 9.69981 22.4 8.0998 21.5L7.6998 21.3L3.7998 22.3L4.7998 18.5L4.5998 18C3.5998 16.3 2.9998 14.4 2.9998 12.5C2.9998 6.8 7.6998 2.2 13.3998 2.2C16.1998 2.2 18.7998 3.3 20.6998 5.2C22.5998 7.1 23.8998 9.8 23.8998 12.5C23.8998 18.3 19.0998 22.9 13.3998 22.9ZM19.0998 15.1C18.7998 14.9 17.2998 14.2 16.9998 14.1C16.6998 14 16.4998 13.9 16.2998 14.3C16.0998 14.6 15.4998 15.3 15.2998 15.5C15.0998 15.7 14.8998 15.7 14.5998 15.6C12.7998 14.7 11.5998 14 10.3998 11.9C10.0998 11.3 10.6998 11.4 11.2998 10.2C11.3998 10 11.3998 9.8 11.2998 9.7C11.1998 9.5 10.5998 8 10.2998 7.4C9.9998 6.8 9.7998 6.9 9.5998 6.9C9.39981 6.9 9.1998 6.9 8.9998 6.9C8.7998 6.9 8.4998 7 8.1998 7.3C7.7998 7.5 6.9998 8.2 6.9998 9.8C6.9998 11.4 8.0998 12.8 8.2998 13C8.4998 13.2 10.4998 16.4 13.5998 17.7C15.5998 18.6 16.3998 18.6 17.2998 18.5C17.8998 18.4 19.0998 17.7 19.3998 17C19.6998 16.3 19.6998 15.6 19.5998 15.5C19.5998 15.4 19.3998 15.3 19.0998 15.1Z" fill="#424242"/>
</svg>
